<svg xmlns="http://www.w3.org/2000/svg" viewBox="0 0 512 512">
  <!-- Rounded background -->
  <rect width="512" height="512" rx="100" fill="#7c3aed"/>

  <!-- Book body -->
  <rect x="110" y="140" width="292" height="260" rx="18" fill="#fff" opacity="0.15"/>
  <rect x="126" y="152" width="260" height="236" rx="14" fill="#fff"/>

  <!-- Spine line -->
  <rect x="253" y="152" width="6" height="236" rx="3" fill="#ede9fe"/>

  <!-- Left page lines -->
  <rect x="152" y="196" width="86" height="11" rx="5.5" fill="#7c3aed" opacity="0.35"/>
  <rect x="152" y="222" width="74" height="9"  rx="4.5" fill="#7c3aed" opacity="0.25"/>
  <rect x="152" y="246" width="80" height="9"  rx="4.5" fill="#7c3aed" opacity="0.25"/>
  <rect x="152" y="270" width="68" height="9"  rx="4.5" fill="#7c3aed" opacity="0.25"/>
  <rect x="152" y="294" width="76" height="9"  rx="4.5" fill="#7c3aed" opacity="0.25"/>
  <rect x="152" y="318" width="60" height="9"  rx="4.5" fill="#7c3aed" opacity="0.25"/>

  <!-- Right page lines -->
  <rect x="272" y="196" width="86" height="11" rx="5.5" fill="#7c3aed" opacity="0.35"/>
  <rect x="272" y="222" width="74" height="9"  rx="4.5" fill="#7c3aed" opacity="0.25"/>
  <rect x="272" y="246" width="80" height="9"  rx="4.5" fill="#7c3aed" opacity="0.25"/>
  <rect x="272" y="270" width="68" height="9"  rx="4.5" fill="#7c3aed" opacity="0.25"/>
  <rect x="272" y="294" width="76" height="9"  rx="4.5" fill="#7c3aed" opacity="0.25"/>
  <rect x="272" y="318" width="60" height="9"  rx="4.5" fill="#7c3aed" opacity="0.25"/>

  <!-- Graduation cap -->
  <polygon points="256,82 340,124 256,155 172,124" fill="#fbbf24"/>
  <rect x="328" y="124" width="8" height="44" rx="4" fill="#fbbf24"/>
  <circle cx="332" cy="174" r="12" fill="#f59e0b"/>
</svg>
